<svg width="327" height="61" viewBox="0 0 327 61" fill="none" xmlns="http://www.w3.org/2000/svg">
<path d="M64.0738 12.2364L291.5 12.2363L262.714 49.5L37.7776 49.5001L64.0738 12.2364Z" fill="#064F5F"/>
<path d="M2.9489 59.5L45.2096 1.5H324.01L280.743 59.5H2.9489Z" stroke="#3B9E69" stroke-width="3"/>
<path d="M118.571 40V21.575H125.421C127.071 21.575 128.296 21.975 129.096 22.775C129.912 23.575 130.321 24.7583 130.321 26.325C130.321 27.0917 130.204 27.7583 129.971 28.325C129.754 28.875 129.446 29.3333 129.046 29.7C128.662 30.05 128.229 30.2917 127.746 30.425C128.096 30.525 128.454 30.675 128.821 30.875C129.204 31.075 129.554 31.3583 129.871 31.725C130.204 32.075 130.471 32.5167 130.671 33.05C130.871 33.5667 130.971 34.1833 130.971 34.9C130.971 36.1833 130.754 37.2 130.321 37.95C129.904 38.6833 129.304 39.2083 128.521 39.525C127.737 39.8417 126.796 40 125.696 40H118.571ZM121.096 37.75H125.621C126.221 37.75 126.737 37.65 127.171 37.45C127.604 37.25 127.946 36.9167 128.196 36.45C128.446 35.9833 128.571 35.325 128.571 34.475C128.571 33.8583 128.437 33.3333 128.171 32.9C127.904 32.45 127.546 32.1083 127.096 31.875C126.662 31.6417 126.171 31.525 125.621 31.525H121.096V37.75ZM121.096 29.575H125.496C126.212 29.575 126.787 29.3167 127.221 28.8C127.671 28.2667 127.904 27.575 127.921 26.725C127.954 25.6417 127.729 24.8917 127.246 24.475C126.762 24.0417 126.146 23.825 125.396 23.825H121.096V29.575ZM137.954 40.1C137.537 40.1 137.095 40.0667 136.629 40C136.162 39.9167 135.712 39.7583 135.279 39.525C134.862 39.275 134.52 38.9 134.254 38.4C133.987 37.9 133.854 37.225 133.854 36.375V25.425C133.854 24.6917 133.962 24.075 134.179 23.575C134.412 23.075 134.712 22.6833 135.079 22.4C135.445 22.1 135.854 21.8917 136.304 21.775C136.77 21.6417 137.229 21.575 137.679 21.575C138.762 21.5917 139.754 21.6167 140.654 21.65C141.57 21.6667 142.42 21.6917 143.204 21.725C143.987 21.7583 144.737 21.7917 145.454 21.825V23.9H138.354C137.737 23.9 137.254 24.0583 136.904 24.375C136.554 24.6917 136.379 25.1917 136.379 25.875V29.7L144.329 29.85V31.8L136.379 31.975V35.75C136.379 36.3167 136.47 36.7417 136.654 37.025C136.854 37.3083 137.104 37.5 137.404 37.6C137.72 37.7 138.054 37.75 138.404 37.75H145.454V39.825C144.687 39.875 143.879 39.925 143.029 39.975C142.179 40.0083 141.32 40.0333 140.454 40.05C139.604 40.0833 138.77 40.1 137.954 40.1ZM153.275 40V34.05L147.525 21.575H150.15L154.575 31.5L159.025 21.575H161.55L155.8 34.05V40H153.275ZM170.561 40.15C169.361 40.15 168.303 40.0333 167.386 39.8C166.486 39.5667 165.728 39.1333 165.111 38.5C164.511 37.8667 164.061 36.9333 163.761 35.7C163.461 34.4667 163.311 32.85 163.311 30.85C163.311 28.85 163.461 27.2333 163.761 26C164.061 24.75 164.519 23.8 165.136 23.15C165.753 22.4833 166.511 22.0333 167.411 21.8C168.311 21.55 169.361 21.425 170.561 21.425C171.794 21.425 172.861 21.55 173.761 21.8C174.678 22.0333 175.436 22.4833 176.036 23.15C176.636 23.8 177.086 24.75 177.386 26C177.686 27.2333 177.836 28.85 177.836 30.85C177.836 32.85 177.686 34.4667 177.386 35.7C177.086 36.9333 176.628 37.8667 176.011 38.5C175.411 39.1333 174.653 39.5667 173.736 39.8C172.836 40.0333 171.778 40.15 170.561 40.15ZM170.561 37.9C171.428 37.9 172.161 37.8083 172.761 37.625C173.378 37.4417 173.869 37.1083 174.236 36.625C174.619 36.125 174.894 35.4167 175.061 34.5C175.228 33.5667 175.311 32.35 175.311 30.85C175.311 29.2667 175.219 28 175.036 27.05C174.869 26.1 174.603 25.3833 174.236 24.9C173.869 24.4167 173.378 24.0917 172.761 23.925C172.161 23.7583 171.428 23.675 170.561 23.675C169.744 23.675 169.036 23.7583 168.436 23.925C167.836 24.0917 167.344 24.4167 166.961 24.9C166.578 25.3833 166.286 26.1 166.086 27.05C165.903 28 165.811 29.2667 165.811 30.85C165.811 32.35 165.886 33.5667 166.036 34.5C166.203 35.4167 166.469 36.125 166.836 36.625C167.219 37.1083 167.711 37.4417 168.311 37.625C168.928 37.8083 169.678 37.9 170.561 37.9ZM181.297 40V21.575H183.347L192.372 35.7V21.575H194.872V40H192.847L183.822 25.875V40H181.297ZM198.258 40V21.575H205.708C206.858 21.575 207.825 21.7833 208.608 22.2C209.391 22.6167 210.025 23.225 210.508 24.025C210.991 24.8083 211.341 25.775 211.558 26.925C211.775 28.0583 211.883 29.35 211.883 30.8C211.883 32.7667 211.65 34.4333 211.183 35.8C210.733 37.1667 210.05 38.2083 209.133 38.925C208.216 39.6417 207.075 40 205.708 40H198.258ZM200.783 37.75H205.483C206.4 37.75 207.141 37.475 207.708 36.925C208.275 36.3583 208.691 35.5583 208.958 34.525C209.225 33.475 209.358 32.2333 209.358 30.8C209.358 29.4833 209.283 28.3833 209.133 27.5C208.983 26.6 208.75 25.8833 208.433 25.35C208.116 24.8 207.708 24.4083 207.208 24.175C206.725 23.9417 206.15 23.825 205.483 23.825H200.783V37.75Z" fill="#F8D782"/>
<path d="M0 0H44.5L0 61V0Z" fill="#064F5F"/>
</svg>
