<svg width="327" height="61" viewBox="0 0 327 61" fill="none" xmlns="http://www.w3.org/2000/svg">
<path d="M64.0738 12.2364L291.5 12.2363L262.714 49.5L37.7776 49.5001L64.0738 12.2364Z" fill="#16AE85"/>
<path d="M2.9489 59.5L45.2096 1.5H324.01L280.743 59.5H2.9489Z" stroke="#064F5F" stroke-width="3"/>
<path d="M119.479 40V21.65H125.954C127.437 21.65 128.57 22.0333 129.354 22.8C130.137 23.55 130.529 24.725 130.529 26.325C130.529 27.0917 130.404 27.7667 130.154 28.35C129.92 28.9167 129.604 29.3833 129.204 29.75C128.804 30.1 128.379 30.3417 127.929 30.475C128.245 30.5417 128.587 30.675 128.954 30.875C129.32 31.0583 129.67 31.325 130.004 31.675C130.354 32.0083 130.637 32.4417 130.854 32.975C131.07 33.5083 131.179 34.15 131.179 34.9C131.179 36.2167 130.97 37.25 130.554 38C130.154 38.7333 129.57 39.25 128.804 39.55C128.054 39.85 127.17 40 126.154 40H119.479ZM120.929 38.7H126.129C126.862 38.7 127.495 38.5917 128.029 38.375C128.579 38.1417 129.004 37.7417 129.304 37.175C129.62 36.5917 129.779 35.7583 129.779 34.675C129.779 33.925 129.612 33.2833 129.279 32.75C128.962 32.2167 128.529 31.8167 127.979 31.55C127.429 31.2667 126.812 31.125 126.129 31.125H120.929V38.7ZM120.929 29.95H126.079C126.945 29.95 127.662 29.6417 128.229 29.025C128.812 28.3917 129.112 27.55 129.129 26.5C129.179 25.1833 128.895 24.2667 128.279 23.75C127.679 23.2167 126.895 22.95 125.929 22.95H120.929V29.95ZM138.096 40.1C137.68 40.1 137.255 40.0667 136.821 40C136.405 39.9167 136.005 39.7667 135.621 39.55C135.255 39.3167 134.955 38.975 134.721 38.525C134.488 38.0583 134.371 37.4417 134.371 36.675V25.175C134.371 24.4917 134.471 23.925 134.671 23.475C134.871 23.025 135.138 22.6667 135.471 22.4C135.805 22.1333 136.171 21.9417 136.571 21.825C136.988 21.7083 137.405 21.65 137.821 21.65C138.771 21.6667 139.671 21.6833 140.521 21.7C141.388 21.7167 142.221 21.7417 143.021 21.775C143.838 21.7917 144.63 21.8167 145.396 21.85V22.975H138.121C137.421 22.975 136.863 23.1667 136.446 23.55C136.03 23.9167 135.821 24.5167 135.821 25.35V30.225L144.346 30.35V31.425L135.821 31.55V36.4C135.821 37.0833 135.938 37.5917 136.171 37.925C136.421 38.2583 136.738 38.4833 137.121 38.6C137.505 38.7 137.896 38.75 138.296 38.75H145.396V39.875C144.63 39.9083 143.83 39.9417 142.996 39.975C142.18 39.9917 141.363 40.0083 140.546 40.025C139.73 40.0583 138.913 40.0833 138.096 40.1ZM153.896 40V33.75L147.971 21.65H149.496L154.646 32.3L159.796 21.65H161.296L155.346 33.75V40H153.896ZM170.485 40.15C169.335 40.15 168.319 40.0417 167.435 39.825C166.569 39.6083 165.844 39.1917 165.26 38.575C164.694 37.9417 164.26 37.0083 163.96 35.775C163.677 34.5417 163.535 32.925 163.535 30.925C163.535 28.9083 163.677 27.2833 163.96 26.05C164.26 24.8 164.702 23.85 165.285 23.2C165.885 22.5333 166.619 22.0833 167.485 21.85C168.352 21.6167 169.352 21.5 170.485 21.5C171.669 21.5 172.694 21.6167 173.56 21.85C174.444 22.0833 175.169 22.5333 175.735 23.2C176.319 23.85 176.744 24.8 177.01 26.05C177.294 27.2833 177.435 28.9083 177.435 30.925C177.435 32.925 177.294 34.5417 177.01 35.775C176.727 37.0083 176.294 37.9417 175.71 38.575C175.127 39.1917 174.402 39.6083 173.535 39.825C172.669 40.0417 171.652 40.15 170.485 40.15ZM170.485 38.85C171.469 38.85 172.31 38.7583 173.01 38.575C173.71 38.375 174.277 38 174.71 37.45C175.16 36.9 175.485 36.1083 175.685 35.075C175.885 34.025 175.985 32.6417 175.985 30.925C175.985 29.125 175.877 27.6833 175.66 26.6C175.46 25.5167 175.135 24.7083 174.685 24.175C174.252 23.625 173.685 23.2583 172.985 23.075C172.302 22.8917 171.469 22.8 170.485 22.8C169.585 22.8 168.785 22.8917 168.085 23.075C167.402 23.2583 166.827 23.625 166.36 24.175C165.91 24.7083 165.569 25.5167 165.335 26.6C165.102 27.6833 164.985 29.125 164.985 30.925C164.985 32.6417 165.077 34.025 165.26 35.075C165.46 36.1083 165.777 36.9 166.21 37.45C166.644 38 167.21 38.375 167.91 38.575C168.61 38.7583 169.469 38.85 170.485 38.85ZM181.426 40V21.65H182.651L192.801 37.475V21.65H194.251V40H193.051L182.876 24.175V40H181.426ZM197.921 40V21.65H205.021C206.104 21.65 207.013 21.8417 207.746 22.225C208.496 22.6083 209.104 23.1917 209.571 23.975C210.054 24.7417 210.404 25.7 210.621 26.85C210.838 27.9833 210.946 29.3083 210.946 30.825C210.946 32.7083 210.721 34.3333 210.271 35.7C209.838 37.0667 209.179 38.125 208.296 38.875C207.429 39.625 206.338 40 205.021 40H197.921ZM199.371 38.7H204.921C205.988 38.7 206.854 38.375 207.521 37.725C208.188 37.0583 208.679 36.1333 208.996 34.95C209.329 33.7667 209.496 32.3917 209.496 30.825C209.496 29.4083 209.404 28.2 209.221 27.2C209.054 26.2 208.788 25.3917 208.421 24.775C208.054 24.1417 207.579 23.6833 206.996 23.4C206.429 23.1 205.738 22.95 204.921 22.95H199.371V38.7Z" fill="white"/>
<path d="M0 0H44.5L0 61V0Z" fill="#064F5F"/>
</svg>
