<svg width="190" height="77" viewBox="0 0 190 77" fill="none" xmlns="http://www.w3.org/2000/svg">
<path d="M86.1059 59.9279L93.7465 56.6841C93.7465 56.6841 82.9513 51.2536 73.4395 45.4386C73.1636 44.4174 72.8637 43.3962 72.5279 42.375C78.6572 45.4987 86.7656 49.2352 100.439 53.9208L111.151 49.3553C109.483 49.139 88.2289 46.3037 70.9806 38.194C70.5728 37.2208 70.129 36.2477 69.6612 35.2865C79.053 38.242 97.2729 43.24 119.727 45.7029L135.896 38.8067C132.861 38.9268 101.099 39.924 66.5306 29.9401C65.583 28.5705 64.5394 27.2489 63.388 25.9994C64.2876 26.3118 88.1929 34.5416 144.952 34.902L158.554 29.1472L176.45 21.5181C173.571 21.9866 145.467 26.4199 122.234 25.7351C97.7287 25.0142 76.6781 24.834 47.4111 18.1781C47.4111 18.1781 45.7918 17.8176 45.7918 17.3971C45.7918 16.9646 46.7394 16.8325 47.1712 16.7724C47.603 16.7123 50.3498 16.4961 53.0246 16.4961C55.6994 16.4961 58.0024 16.6042 58.9619 17.0607C59.3577 17.253 59.7776 17.9498 59.7776 17.9498C59.7776 17.9498 59.6576 15.4868 58.2902 13.0479C58.2902 13.0479 58.0623 12.4712 57.2587 12.1829C56.527 11.9186 54.344 11.3659 51.6212 10.9574C51.3213 10.9094 51.0454 10.8133 50.7936 10.6691C50.4817 10.4889 50.1698 10.2366 50.0139 9.93621C49.774 9.44362 49.69 9.01111 49.6061 8.77082C49.5221 8.53053 49.2582 8.086 48.9584 7.90579C48.5266 7.65349 47.0392 7.36514 45.8518 7.36514C44.6643 7.36514 39.9864 7.17291 36.4719 7.4973C32.9575 7.82169 33.3053 7.98989 32.6936 8.36233C32.3817 8.55456 26.2884 15.8112 26.2884 15.8112L18.7798 23.8008C18.7798 23.8008 38.4031 18.4424 56.1072 34.4095H26.8762V43.6124H64.1916C65.7149 45.763 67.2023 48.1298 68.6296 50.737H26.8762V59.94H72.9597C74.0152 62.5351 75.0108 65.2984 75.9344 68.2539C75.9344 68.2539 76.2462 59.3873 74.495 49.8479C76.0183 51.2295 86.1059 59.9279 86.1059 59.9279Z" fill="url(#paint0_linear_410_260)"/>
<defs>
<linearGradient id="paint0_linear_410_260" x1="27.0843" y1="5.86693" x2="155.805" y2="65.7918" gradientUnits="userSpaceOnUse">
<stop stop-color="#38C58B"/>
<stop offset="0.1494" stop-color="#0D7B71"/>
<stop offset="0.3071" stop-color="#064F5F"/>
<stop offset="0.4641" stop-color="#16AE85"/>
<stop offset="0.5887" stop-color="#53D790"/>
<stop offset="0.7537" stop-color="#16AE85"/>
<stop offset="1" stop-color="#064F5F"/>
</linearGradient>
</defs>
</svg>
