<svg width="90" height="90" viewBox="0 0 90 90" fill="none" xmlns="http://www.w3.org/2000/svg">
<path d="M81.8413 0H8.15871C3.65273 0 0 3.65273 0 8.15871V81.8413C0 86.3473 3.65273 90 8.15871 90H81.8413C86.3473 90 90 86.3473 90 81.8413V8.15871C90 3.65273 86.3473 0 81.8413 0Z" fill="#DC395F"/>
<path d="M30.0779 28.3165C33.0697 28.3165 35.576 25.9716 35.576 22.8982C35.576 19.827 33.0697 17.4824 30.0779 17.4824C27.0861 17.4824 24.5806 19.827 24.5806 22.8982C24.5806 25.9713 27.0861 28.3165 30.0779 28.3165ZM18.6782 57.3275C18.3551 58.7021 18.193 60.1864 18.193 61.3972C18.193 66.1682 20.7802 69.3354 26.2782 69.3354C30.838 69.3354 34.5347 66.6277 37.1964 62.2553L35.5711 68.7779H44.6256L49.8006 48.022C51.0943 42.7668 53.6006 40.039 57.401 40.039C60.3925 40.039 62.2519 41.8995 62.2519 44.9707C62.2519 45.8605 62.171 46.8298 61.8476 47.8813L59.1792 57.4217C58.7749 58.7963 58.6139 60.1716 58.6139 61.4643C58.6139 65.9935 61.2812 69.3063 66.8602 69.3063C71.6305 69.3063 75.4302 66.2354 77.5325 58.8775L73.9754 57.5043C72.1965 62.4336 70.6602 63.3248 69.4473 63.3248C68.2344 63.3248 67.5875 62.5169 67.5875 60.9007C67.5875 60.173 67.75 59.3655 67.9918 58.393L70.5797 49.0984C71.2262 46.9159 71.4691 44.9806 71.4691 43.2024C71.4691 36.2492 67.2645 32.6204 62.171 32.6204C57.401 32.6204 52.5495 36.9231 50.1244 41.4516L51.9026 33.3235H38.0777L36.1371 40.4827H42.6055L38.6223 56.4296C35.4945 63.3828 29.7489 63.4956 29.0278 63.3343C27.8438 63.0671 27.0865 62.6174 27.0865 61.079C27.0865 60.1913 27.2482 58.9162 27.6525 57.3788L33.717 33.3235H18.3551L16.4145 40.4827H22.8013L18.6785 57.3275" fill="white"/>
</svg>
