<svg width="90" height="91" viewBox="0 0 90 91" fill="none" xmlns="http://www.w3.org/2000/svg">
<g clip-path="url(#clip0_91_429)">
<path d="M0 6.62768C0 3.06916 2.97914 0.180725 6.65156 0.180725H83.3484C87.0223 0.180725 90 3.06916 90 6.62768V83.7348C90 87.2944 87.0223 90.1807 83.3484 90.1807H6.65156C2.97949 90.1807 0 87.2947 0 83.7359V6.62662V6.62768Z" fill="#006699"/>
<path d="M27.3504 75.4988V34.9805H13.8827V75.4988H27.3518H27.3504ZM20.6193 29.4494C25.3148 29.4494 28.238 26.338 28.238 22.4497C28.1502 18.4729 25.3148 15.4484 20.7086 15.4484C16.0993 15.4484 13.0889 18.4729 13.0889 22.4494C13.0889 26.3377 16.0111 29.449 20.5311 29.449H20.6183L20.6193 29.4494ZM34.8049 75.4988H48.2715V52.874C48.2715 51.6646 48.3594 50.452 48.7152 49.5883C49.6883 47.1678 51.9042 44.6622 55.6255 44.6622C60.4974 44.6622 62.4475 48.3775 62.4475 53.8249V75.4988H75.9138V52.2668C75.9138 39.8219 69.2707 34.0306 60.4102 34.0306C53.1459 34.0306 49.9555 38.0908 48.1829 40.8561H48.2725V34.9819H34.8056C34.9814 38.783 34.8045 75.5002 34.8045 75.5002L34.8049 75.4988Z" fill="white"/>
</g>
<defs>
<clipPath id="clip0_91_429">
<rect width="90" height="90.3614" fill="white"/>
</clipPath>
</defs>
</svg>
