<svg width="84" height="88" viewBox="0 0 84 88" fill="none" xmlns="http://www.w3.org/2000/svg">
<path fill-rule="evenodd" clip-rule="evenodd" d="M54.4573 20.4052C55.6162 20.39 56.6016 21.0682 57.3855 21.4525C58.7143 22.1037 60.0603 22.4715 61.1093 23.3883C63.4162 25.4048 63.7062 32.0088 62.0005 34.3051C60.6004 36.1902 56.4281 36.9871 53.8526 37.3517C52.9382 37.4812 47.024 38.2349 45.7684 38.3355C44.6328 38.4266 37.9365 39.1507 36.7433 39.2275C35.854 39.2847 33.3295 39.5995 31.9233 39.6049C31.1703 40.7156 30.4166 41.8263 29.6636 42.937C30.1524 44.825 32.4829 58.5811 32.5261 59.3367C32.5694 60.092 33.1812 64.8056 33.3556 65.691C33.3661 65.691 33.3769 65.691 33.3874 65.691C33.6786 65.082 34.7926 63.3985 35.0507 62.626C35.3088 61.8536 36.5383 59.5344 36.6338 59.1536C37.2188 58.0321 39.2946 57.0975 41.0897 57.313C42.2062 57.4469 44.1744 58.5087 44.4316 58.6141C44.4421 58.7093 46.3254 59.5655 46.9778 61.026C47.0733 61.322 47.4155 62.3972 46.9778 64.3264C47.1141 64.4114 49.1491 66.9639 49.8423 67.6268C52.8278 70.4814 56.0331 73.2763 60.441 74.6402C63.7676 75.6697 69.6201 75.6983 73.172 75.4336C73.9677 75.4549 78.4847 75.1264 79.5175 75.0978C80.5503 75.0693 81.9848 74.8119 81.9848 74.8119C81.9848 74.8119 78.0528 77.4123 77.5961 77.7823C75.6708 79.3418 70.4342 82.6317 70.0847 82.8282C67.2963 84.3946 63.8825 85.7675 61.7777 86.3825C61.0944 86.5821 58.1112 86.6525 57.2582 86.4142C55.0573 85.7989 53.7145 84.4063 52.1658 83.1455C48.9664 80.5407 46.1901 77.8115 44.3361 74.1645C43.8482 73.4241 42.1719 70.1234 41.8217 69.2139C41.4226 69.7108 40.7956 69.9927 40.294 70.3881C39.9458 70.6626 39.8319 71.0253 39.6575 71.3084C39.4102 71.7098 37.1844 73.6031 36.5065 74.1645C35.8868 74.6777 35.1491 75.2511 34.5969 75.6878C34.3263 75.9017 33.157 77.8372 32.8463 78.4487C32.0147 80.0866 30.3176 80.793 28.5671 80.9047C26.3293 81.0478 25.2373 80.2878 24.9849 80.0355C24.9849 80.0355 24.6539 79.5712 24.5393 78.9882C24.2353 77.4437 24.6268 75.9674 25.0387 74.6402C25.2615 74.2382 25.7997 73.4448 25.8993 72.9526C25.9992 72.4604 26.1332 71.4058 26.1861 70.7502C26.3134 70.3271 26.3853 70.1447 26.5126 69.7216C26.7453 68.5697 26.7332 67.6719 26.8627 66.7386C26.9086 66.4079 27.5728 54.4889 27.6492 52.7292C27.7256 50.9695 27.6775 47.6227 27.5311 47.0629C27.478 47.0629 22.0953 55.9541 20.4972 58.3605C18.8991 60.767 14.123 67.8023 13.6224 68.2936C13.0132 68.8911 9.01884 73.5657 7.51148 75.0848C3.75199 78.874 0.116947 81.2627 0.00013927 81.2732C-0.0272326 79.6426 3.98911 75.2013 4.07409 74.9579C4.80389 73.989 7.22917 69.986 8.71488 67.6751C9.27378 66.8055 12.1599 62.3274 12.5447 61.4966C13.1084 60.2799 15.4047 55.8005 15.7867 55.187C16.422 53.817 16.6486 53.341 17.3787 52.1859C17.8243 51.509 18.3673 50.4001 18.9058 49.3478C19.4443 48.2955 20.8715 44.281 21.2292 43.5086C21.4511 43.0294 22.6927 39.3926 22.6933 38.6214C21.9689 38.9705 18.9733 40.999 18.3647 41.3189C14.7119 43.2379 10.9489 45.1417 6.49299 46.5234C5.65465 46.7833 4.65176 47.1895 4.29688 47.2371C3.942 47.2847 2.7682 47.623 2.74783 47.5231C3.06706 46.9163 6.13811 45.3708 6.81127 44.8097C7.58436 44.1652 8.16363 43.8002 9.00165 43.1754C9.53954 42.7742 10.7901 41.4233 11.354 40.9441C12.5473 39.9308 13.6606 39.5788 14.9907 38.6531C17.2224 37.1004 19.177 34.9897 20.9743 33.0361C21.3836 32.5911 26.7882 27.557 31 20.0882C31.7425 18.4383 32.4854 16.7875 33.2279 15.1376C33.6115 14.3255 33.6108 13.2788 33.9282 12.4401C34.4259 11.124 33.6675 10.1771 33.6417 9.01272C33.6159 7.84837 33.4959 6.97502 33.6417 6.44219C33.8008 6.25178 33.96 6.06137 34.1191 5.87096C34.3461 5.2864 33.6026 4.36927 33.7372 3.87166C33.8301 3.52734 34.2296 3.28964 34.3101 2.66573C34.3906 2.04183 34.2245 2.15258 34.2471 1.41252C34.2697 0.672463 34.4797 0.0212624 34.5011 0C36.4072 0.174859 37.5648 1.18371 38.8296 2.15798C39.386 2.58671 40.1438 2.62257 40.7075 3.04655C41.7288 3.81454 42.7677 5.96045 43.4128 7.83853C44.4615 10.5877 43.5188 13.1522 42.7763 15.8357C41.5732 20.1837 39.0489 23.5521 36.8881 27.0699C36.2369 28.1298 35.6293 29.087 34.9069 30.303C34.1844 31.5191 33.7732 32.0888 33.6446 33.3924C34.6134 33.3943 35.997 33.3068 37.5463 32.9919C39.0566 32.6851 41.2457 32.2887 42.6808 31.9253C44.1159 31.5617 47.5912 30.3545 48.728 29.7991C49.3678 29.4865 50.2602 29.5868 50.8605 29.0057C52.0031 27.8998 52.2705 26.1039 53.3431 24.785C53.7861 24.2404 55.3657 23.0738 54.839 21.6432C54.6633 21.1653 54.4593 21.0539 54.4573 20.4052Z" fill="url(#paint0_linear_91_383)"/>
<path fill-rule="evenodd" clip-rule="evenodd" d="M38.1979 42.1821C38.8315 42.6454 39.5133 42.9297 40.1712 43.388C40.7552 43.7948 41.3739 44.4311 41.9854 44.9113C44.1449 46.6075 51.5139 51.4106 52.8704 52.4959C53.5547 53.0433 54.1356 52.9158 54.3982 52.6546C56.0793 50.9837 55.3708 46.2162 55.4768 46.121C56.9676 46.4511 58.2321 50.0818 58.5039 50.7188C58.7761 51.3557 59.8458 52.1989 60.2863 52.7498C60.7268 53.3007 62.8392 56.8741 62.928 57.4466C63.0098 57.9734 62.8325 58.6722 62.8325 59.1285C62.8325 59.9831 63.1934 60.6981 63.2463 61.4452C63.3255 62.5638 62.9375 63.9087 62.4824 64.936C62.5142 65.0417 61.2411 68.2986 60.1908 68.7442C57.3721 69.94 54.7263 66.4539 53.6693 64.4568C52.4745 62.7847 50.7532 60.4963 48.6488 58.2209C48.024 57.5456 45.8693 55.4539 45.2954 54.7491C44.8619 54.2166 44.3202 53.5651 43.8632 52.9719C43.4176 52.5699 40.8233 49.5528 39.8847 48.9733C39.8316 49.0051 37.984 47.213 37.5613 46.7519C37.0918 46.2397 35.3168 43.9224 34.8785 43.3893C34.6382 43.0973 32.4415 40.3589 31.9809 39.9137C31.5207 39.469 36.2271 40.8292 38.1979 42.1821Z" fill="url(#paint1_linear_91_383)"/>
<defs>
<linearGradient id="paint0_linear_91_383" x1="40.9924" y1="0" x2="40.9924" y2="86.5648" gradientUnits="userSpaceOnUse">
<stop stop-color="#064F5F"/>
<stop offset="0.50625" stop-color="#16AE85"/>
<stop offset="0.975" stop-color="#53D790"/>
</linearGradient>
<linearGradient id="paint1_linear_91_383" x1="47.603" y1="39.8278" x2="47.603" y2="68.9881" gradientUnits="userSpaceOnUse">
<stop stop-color="#064F5F"/>
<stop offset="0.50625" stop-color="#16AE85"/>
<stop offset="0.975" stop-color="#53D790"/>
</linearGradient>
</defs>
</svg>
