<svg width="327" height="61" viewBox="0 0 327 61" fill="none" xmlns="http://www.w3.org/2000/svg">
<path d="M2.9489 59.5L45.2096 1.5H324.01L280.743 59.5H2.9489Z" fill="white" stroke="#3B9E69" stroke-width="3"/>
<path d="M64.0738 12.2364L291.5 12.2363L262.714 49.5L37.7776 49.5001L64.0738 12.2364Z" fill="#064F5F"/>
<path d="M118.644 40V21.575H126.019C126.652 21.575 127.261 21.65 127.844 21.8C128.444 21.95 128.977 22.225 129.444 22.625C129.911 23.025 130.277 23.5917 130.544 24.325C130.811 25.0417 130.944 25.9833 130.944 27.15C130.944 28.1 130.844 28.8917 130.644 29.525C130.444 30.1583 130.177 30.6667 129.844 31.05C129.527 31.4167 129.169 31.7 128.769 31.9C128.386 32.0833 128.002 32.225 127.619 32.325L131.294 40H128.744L125.344 32.675C125.094 32.675 124.786 32.675 124.419 32.675C124.069 32.6583 123.694 32.65 123.294 32.65C122.911 32.65 122.527 32.6417 122.144 32.625C121.777 32.6083 121.452 32.6 121.169 32.6V40H118.644ZM121.169 30.65H125.619C126.019 30.65 126.386 30.6083 126.719 30.525C127.052 30.425 127.344 30.25 127.594 30C127.861 29.7333 128.069 29.375 128.219 28.925C128.369 28.4583 128.444 27.8667 128.444 27.15C128.444 26.45 128.369 25.8833 128.219 25.45C128.069 25.0167 127.861 24.6833 127.594 24.45C127.327 24.2167 127.027 24.0583 126.694 23.975C126.361 23.875 126.002 23.825 125.619 23.825H121.169V30.65ZM138.1 40.1C137.684 40.1 137.242 40.0667 136.775 40C136.309 39.9167 135.859 39.7583 135.425 39.525C135.009 39.275 134.667 38.9 134.4 38.4C134.134 37.9 134 37.225 134 36.375V25.425C134 24.6917 134.109 24.075 134.325 23.575C134.559 23.075 134.859 22.6833 135.225 22.4C135.592 22.1 136 21.8917 136.45 21.775C136.917 21.6417 137.375 21.575 137.825 21.575C138.909 21.5917 139.9 21.6167 140.8 21.65C141.717 21.6667 142.567 21.6917 143.35 21.725C144.134 21.7583 144.884 21.7917 145.6 21.825V23.9H138.5C137.884 23.9 137.4 24.0583 137.05 24.375C136.7 24.6917 136.525 25.1917 136.525 25.875V29.7L144.475 29.85V31.8L136.525 31.975V35.75C136.525 36.3167 136.617 36.7417 136.8 37.025C137 37.3083 137.25 37.5 137.55 37.6C137.867 37.7 138.2 37.75 138.55 37.75H145.6V39.825C144.834 39.875 144.025 39.925 143.175 39.975C142.325 40.0083 141.467 40.0333 140.6 40.05C139.75 40.0833 138.917 40.1 138.1 40.1ZM154.071 40.15C153.671 40.15 153.213 40.1333 152.696 40.1C152.196 40.0833 151.68 40.05 151.146 40C150.63 39.95 150.13 39.9 149.646 39.85C149.18 39.8 148.78 39.7333 148.446 39.65V37.7C148.88 37.7333 149.396 37.7667 149.996 37.8C150.613 37.8333 151.263 37.8583 151.946 37.875C152.646 37.8917 153.321 37.9 153.971 37.9C154.688 37.9 155.321 37.8333 155.871 37.7C156.438 37.5667 156.88 37.3167 157.196 36.95C157.53 36.5833 157.696 36.0667 157.696 35.4V34.325C157.696 33.575 157.488 33 157.071 32.6C156.671 32.2 156.055 32 155.221 32H153.346C151.746 32 150.505 31.65 149.621 30.95C148.755 30.25 148.321 29.05 148.321 27.35V26.35C148.321 24.5833 148.796 23.325 149.746 22.575C150.713 21.8083 152.08 21.425 153.846 21.425C154.43 21.425 155.055 21.4583 155.721 21.525C156.388 21.575 157.038 21.6417 157.671 21.725C158.305 21.8083 158.83 21.8917 159.246 21.975V23.925C158.496 23.875 157.655 23.825 156.721 23.775C155.805 23.7083 154.938 23.675 154.121 23.675C153.421 23.675 152.813 23.7583 152.296 23.925C151.796 24.075 151.405 24.35 151.121 24.75C150.855 25.15 150.721 25.7167 150.721 26.45V27.2C150.721 28.1 150.963 28.725 151.446 29.075C151.93 29.425 152.605 29.6 153.471 29.6H155.496C156.546 29.6 157.405 29.7917 158.071 30.175C158.755 30.5583 159.263 31.0833 159.596 31.75C159.93 32.4167 160.096 33.175 160.096 34.025V35.325C160.096 36.625 159.83 37.625 159.296 38.325C158.763 39.025 158.046 39.5083 157.146 39.775C156.246 40.025 155.221 40.15 154.071 40.15ZM169.947 40.15C168.931 40.15 167.997 40.0583 167.147 39.875C166.297 39.6917 165.564 39.3833 164.947 38.95C164.331 38.5 163.856 37.8917 163.522 37.125C163.206 36.3583 163.047 35.3917 163.047 34.225V21.575H165.572V34.2C165.572 35.15 165.739 35.8917 166.072 36.425C166.422 36.9417 166.922 37.3167 167.572 37.55C168.239 37.7667 169.031 37.875 169.947 37.875C170.881 37.875 171.672 37.7667 172.322 37.55C172.989 37.3167 173.489 36.9417 173.822 36.425C174.172 35.8917 174.347 35.15 174.347 34.2V21.575H176.872V34.225C176.872 35.3917 176.706 36.3583 176.372 37.125C176.039 37.8917 175.564 38.5 174.947 38.95C174.347 39.3833 173.622 39.6917 172.772 39.875C171.922 40.0583 170.981 40.15 169.947 40.15ZM179.008 40L181.108 21.575H183.608L188.308 36.95L192.933 21.575H195.458L197.608 40H195.183L193.383 24.65L193.808 24.7L189.458 40H187.133L182.708 24.7L183.158 24.675L181.433 40H179.008ZM204.36 40.1C203.943 40.1 203.502 40.0667 203.035 40C202.568 39.9167 202.118 39.7583 201.685 39.525C201.268 39.275 200.927 38.9 200.66 38.4C200.393 37.9 200.26 37.225 200.26 36.375V25.425C200.26 24.6917 200.368 24.075 200.585 23.575C200.818 23.075 201.118 22.6833 201.485 22.4C201.852 22.1 202.26 21.8917 202.71 21.775C203.177 21.6417 203.635 21.575 204.085 21.575C205.168 21.5917 206.16 21.6167 207.06 21.65C207.977 21.6667 208.827 21.6917 209.61 21.725C210.393 21.7583 211.143 21.7917 211.86 21.825V23.9H204.76C204.143 23.9 203.66 24.0583 203.31 24.375C202.96 24.6917 202.785 25.1917 202.785 25.875V29.7L210.735 29.85V31.8L202.785 31.975V35.75C202.785 36.3167 202.877 36.7417 203.06 37.025C203.26 37.3083 203.51 37.5 203.81 37.6C204.127 37.7 204.46 37.75 204.81 37.75H211.86V39.825C211.093 39.875 210.285 39.925 209.435 39.975C208.585 40.0083 207.727 40.0333 206.86 40.05C206.01 40.0833 205.177 40.1 204.36 40.1Z" fill="#F8D782"/>
</svg>
