<svg width="327" height="61" viewBox="0 0 327 61" fill="none" xmlns="http://www.w3.org/2000/svg">
<path d="M2.9489 59.5L45.2096 1.5H324.01L280.743 59.5H2.9489Z" fill="white" stroke="#064F5F" stroke-width="3"/>
<path d="M64.0738 12.2364L291.5 12.2363L262.714 49.5L37.7776 49.5001L64.0738 12.2364Z" fill="#16AE85"/>
<path d="M119.662 40V21.65H126.787C127.337 21.65 127.887 21.7167 128.437 21.85C128.987 21.9667 129.487 22.2083 129.937 22.575C130.387 22.925 130.745 23.45 131.012 24.15C131.278 24.85 131.412 25.7667 131.412 26.9C131.412 27.95 131.295 28.8083 131.062 29.475C130.828 30.125 130.528 30.6333 130.162 31C129.795 31.3667 129.395 31.6333 128.962 31.8C128.528 31.95 128.12 32.05 127.737 32.1L131.587 40H130.137L126.362 32.25C126.078 32.25 125.712 32.25 125.262 32.25C124.812 32.2333 124.337 32.225 123.837 32.225C123.337 32.2083 122.845 32.1917 122.362 32.175C121.878 32.1583 121.462 32.15 121.112 32.15V40H119.662ZM121.112 31.05H126.612C127.062 31.05 127.487 31 127.887 30.9C128.287 30.8 128.645 30.6083 128.962 30.325C129.278 30.025 129.52 29.6 129.687 29.05C129.87 28.5 129.962 27.7833 129.962 26.9C129.962 26.05 129.87 25.3667 129.687 24.85C129.503 24.3333 129.253 23.9417 128.937 23.675C128.62 23.3917 128.262 23.2 127.862 23.1C127.462 23 127.045 22.95 126.612 22.95H121.112V31.05ZM138.426 40.1C138.009 40.1 137.584 40.0667 137.151 40C136.734 39.9167 136.334 39.7667 135.951 39.55C135.584 39.3167 135.284 38.975 135.051 38.525C134.817 38.0583 134.701 37.4417 134.701 36.675V25.175C134.701 24.4917 134.801 23.925 135.001 23.475C135.201 23.025 135.467 22.6667 135.801 22.4C136.134 22.1333 136.501 21.9417 136.901 21.825C137.317 21.7083 137.734 21.65 138.151 21.65C139.101 21.6667 140.001 21.6833 140.851 21.7C141.717 21.7167 142.551 21.7417 143.351 21.775C144.167 21.7917 144.959 21.8167 145.726 21.85V22.975H138.451C137.751 22.975 137.192 23.1667 136.776 23.55C136.359 23.9167 136.151 24.5167 136.151 25.35V30.225L144.676 30.35V31.425L136.151 31.55V36.4C136.151 37.0833 136.267 37.5917 136.501 37.925C136.751 38.2583 137.067 38.4833 137.451 38.6C137.834 38.7 138.226 38.75 138.626 38.75H145.726V39.875C144.959 39.9083 144.159 39.9417 143.326 39.975C142.509 39.9917 141.692 40.0083 140.876 40.025C140.059 40.0583 139.242 40.0833 138.426 40.1ZM154.425 40.15C154.075 40.15 153.65 40.1417 153.15 40.125C152.667 40.1083 152.15 40.075 151.6 40.025C151.067 39.9917 150.559 39.9583 150.075 39.925C149.609 39.875 149.225 39.8167 148.925 39.75V38.65C149.309 38.6833 149.792 38.7167 150.375 38.75C150.975 38.7833 151.617 38.8083 152.3 38.825C153 38.8417 153.692 38.85 154.375 38.85C155.159 38.85 155.875 38.775 156.525 38.625C157.175 38.4583 157.692 38.1583 158.075 37.725C158.459 37.275 158.65 36.625 158.65 35.775V34.375C158.65 33.4417 158.417 32.725 157.95 32.225C157.484 31.725 156.717 31.475 155.65 31.475H153.525C152.092 31.475 150.959 31.1667 150.125 30.55C149.309 29.9167 148.9 28.8083 148.9 27.225V26.15C148.9 24.4333 149.35 23.2333 150.25 22.55C151.15 21.85 152.409 21.5 154.025 21.5C154.525 21.5 155.1 21.525 155.75 21.575C156.417 21.625 157.067 21.6833 157.7 21.75C158.334 21.8167 158.842 21.8833 159.225 21.95V23.05C158.509 23 157.692 22.95 156.775 22.9C155.859 22.8333 154.984 22.8 154.15 22.8C153.35 22.8 152.659 22.9 152.075 23.1C151.509 23.2833 151.067 23.625 150.75 24.125C150.45 24.6083 150.3 25.3 150.3 26.2V27.175C150.3 28.2917 150.584 29.0583 151.15 29.475C151.734 29.875 152.534 30.075 153.55 30.075H155.775C156.759 30.075 157.567 30.2583 158.2 30.625C158.834 30.975 159.3 31.4667 159.6 32.1C159.9 32.7167 160.05 33.425 160.05 34.225V35.75C160.05 36.9333 159.792 37.8417 159.275 38.475C158.759 39.1083 158.075 39.55 157.225 39.8C156.375 40.0333 155.442 40.15 154.425 40.15ZM170.055 40.15C169.039 40.15 168.114 40.0583 167.28 39.875C166.464 39.675 165.764 39.3583 165.18 38.925C164.614 38.4917 164.18 37.9083 163.88 37.175C163.58 36.425 163.43 35.4917 163.43 34.375V21.65H164.88V34.375C164.88 35.5417 165.08 36.45 165.48 37.1C165.897 37.7333 166.489 38.1833 167.255 38.45C168.039 38.7 168.972 38.825 170.055 38.825C171.155 38.825 172.089 38.7 172.855 38.45C173.622 38.1833 174.205 37.7333 174.605 37.1C175.022 36.45 175.23 35.5417 175.23 34.375V21.65H176.68V34.375C176.68 35.4917 176.53 36.425 176.23 37.175C175.947 37.9083 175.514 38.4917 174.93 38.925C174.364 39.3583 173.664 39.675 172.83 39.875C172.014 40.0583 171.089 40.15 170.055 40.15ZM179.245 40L181.32 21.65H182.895L187.97 38.075L192.97 21.65H194.57L196.695 40H195.295L193.345 23.1L193.62 23.15L188.645 40H187.295L182.22 23.175L182.52 23.125L180.645 40H179.245ZM203.514 40.1C203.097 40.1 202.672 40.0667 202.239 40C201.822 39.9167 201.422 39.7667 201.039 39.55C200.672 39.3167 200.372 38.975 200.139 38.525C199.905 38.0583 199.789 37.4417 199.789 36.675V25.175C199.789 24.4917 199.889 23.925 200.089 23.475C200.289 23.025 200.555 22.6667 200.889 22.4C201.222 22.1333 201.589 21.9417 201.989 21.825C202.405 21.7083 202.822 21.65 203.239 21.65C204.189 21.6667 205.089 21.6833 205.939 21.7C206.805 21.7167 207.639 21.7417 208.439 21.775C209.255 21.7917 210.047 21.8167 210.814 21.85V22.975H203.539C202.839 22.975 202.28 23.1667 201.864 23.55C201.447 23.9167 201.239 24.5167 201.239 25.35V30.225L209.764 30.35V31.425L201.239 31.55V36.4C201.239 37.0833 201.355 37.5917 201.589 37.925C201.839 38.2583 202.155 38.4833 202.539 38.6C202.922 38.7 203.314 38.75 203.714 38.75H210.814V39.875C210.047 39.9083 209.247 39.9417 208.414 39.975C207.597 39.9917 206.78 40.0083 205.964 40.025C205.147 40.0583 204.33 40.0833 203.514 40.1Z" fill="white"/>
</svg>
