<?xml version="1.0" encoding="utf-8"?>
<!-- Generator: Adobe Illustrator 26.0.3, SVG Export Plug-In . SVG Version: 6.00 Build 0)  -->
<svg version="1.1" id="Layer_1" xmlns="http://www.w3.org/2000/svg" xmlns:xlink="http://www.w3.org/1999/xlink" x="0px" y="0px"
	 viewBox="0 0 265.7 61" style="enable-background:new 0 0 265.7 61;" xml:space="preserve">
<style type="text/css">
	.st0{fill:url(#SVGID_1_);}
	.st1{fill:#FFFFFF;}
</style>
<linearGradient id="SVGID_1_" gradientUnits="userSpaceOnUse" x1="256" y1="564.5" x2="67" y2="564.5" gradientTransform="matrix(1 0 0 1 0 -534)">
	<stop  offset="0" style="stop-color:#064F5F"/>
	<stop  offset="1" style="stop-color:#16AE85"/>
</linearGradient>
<path class="st0" d="M42,0h224v61H0L42,0z"/>
<path class="st1" d="M129.8,38.2c-1,0-1.9-0.1-2.8-0.3c-0.8-0.2-1.6-0.5-2.2-0.9c-0.6-0.5-1.1-1.1-1.4-1.8c-0.3-0.8-0.5-1.7-0.5-2.9
	V19.6h2.5v12.6c0,1,0.2,1.7,0.5,2.2s0.8,0.9,1.5,1.1c0.7,0.2,1.5,0.3,2.4,0.3c0.9,0,1.7-0.1,2.4-0.3s1.2-0.6,1.5-1.1
	c0.4-0.5,0.5-1.3,0.5-2.2V19.6h2.5v12.6c0,1.2-0.2,2.1-0.5,2.9c-0.3,0.8-0.8,1.4-1.4,1.8c-0.6,0.4-1.3,0.7-2.2,0.9
	C131.8,38.1,130.9,38.2,129.8,38.2z M150.4,38l-11.6-18.4h2.8L153.2,38H150.4z M138.9,38l6.1-9.8l1.3,2.1l-4.6,7.6L138.9,38
	L138.9,38z M147.1,29.6l-1.2-2.2l4.6-7.8h2.8L147.1,29.6z M154.5,39.8l7-21h2.5l-7,21H154.5z M173,38.2c-1,0-2-0.1-2.8-0.3
	c-0.9-0.2-1.6-0.5-2.2-0.9c-0.6-0.5-1.1-1.1-1.4-1.8c-0.3-0.8-0.5-1.7-0.5-2.9V19.6h2.5v12.6c0,1,0.2,1.7,0.5,2.2s0.8,0.9,1.5,1.1
	c0.7,0.2,1.5,0.3,2.4,0.3s1.7-0.1,2.4-0.3s1.2-0.6,1.5-1.1s0.5-1.3,0.5-2.2V19.6h2.5v12.6c0,1.2-0.2,2.1-0.5,2.9
	c-0.3,0.8-0.8,1.4-1.4,1.8c-0.6,0.4-1.3,0.7-2.2,0.9C174.9,38.1,174,38.2,173,38.2z M183.3,38V19.6h2.5V38H183.3z"/>
</svg>
