<svg width="309" height="61" viewBox="0 0 309 61" fill="none" xmlns="http://www.w3.org/2000/svg">
<path d="M42 0H266V61H0L42 0Z" fill="#064F5F"/>
<path d="M129.833 38.15C128.816 38.15 127.883 38.0583 127.033 37.875C126.183 37.6917 125.45 37.3833 124.833 36.95C124.216 36.5 123.741 35.8917 123.408 35.125C123.091 34.3583 122.933 33.3917 122.933 32.225V19.575H125.458V32.2C125.458 33.15 125.625 33.8917 125.958 34.425C126.308 34.9417 126.808 35.3167 127.458 35.55C128.125 35.7667 128.916 35.875 129.833 35.875C130.766 35.875 131.558 35.7667 132.208 35.55C132.875 35.3167 133.375 34.9417 133.708 34.425C134.058 33.8917 134.233 33.15 134.233 32.2V19.575H136.758V32.225C136.758 33.3917 136.591 34.3583 136.258 35.125C135.925 35.8917 135.45 36.5 134.833 36.95C134.233 37.3833 133.508 37.6917 132.658 37.875C131.808 38.0583 130.866 38.15 129.833 38.15ZM150.407 38L138.832 19.575H141.582L153.182 38H150.407ZM138.907 38L144.957 28.225L146.232 30.35L141.657 38H138.907ZM147.082 29.575L145.857 27.375L150.457 19.575H153.232L147.082 29.575ZM154.475 39.8L161.5 18.75H164L156.975 39.8H154.475ZM172.973 38.15C171.956 38.15 171.023 38.0583 170.173 37.875C169.323 37.6917 168.589 37.3833 167.973 36.95C167.356 36.5 166.881 35.8917 166.548 35.125C166.231 34.3583 166.073 33.3917 166.073 32.225V19.575H168.598V32.2C168.598 33.15 168.764 33.8917 169.098 34.425C169.448 34.9417 169.948 35.3167 170.598 35.55C171.264 35.7667 172.056 35.875 172.973 35.875C173.906 35.875 174.698 35.7667 175.348 35.55C176.014 35.3167 176.514 34.9417 176.848 34.425C177.198 33.8917 177.373 33.15 177.373 32.2V19.575H179.898V32.225C179.898 33.3917 179.731 34.3583 179.398 35.125C179.064 35.8917 178.589 36.5 177.973 36.95C177.373 37.3833 176.648 37.6917 175.798 37.875C174.948 38.0583 174.006 38.15 172.973 38.15ZM183.29 38V19.575H185.815V38H183.29Z" fill="#F8D782"/>
</svg>
