<?xml version="1.0" encoding="utf-8"?>
<!-- Generator: Adobe Illustrator 26.0.3, SVG Export Plug-In . SVG Version: 6.00 Build 0)  -->
<svg version="1.1" id="Layer_1" xmlns="http://www.w3.org/2000/svg" xmlns:xlink="http://www.w3.org/1999/xlink" x="0px" y="0px"
	 viewBox="0 0 265.7 61" style="enable-background:new 0 0 265.7 61;" xml:space="preserve">
<style type="text/css">
	.st0{fill:#064F5F;}
	.st1{fill:#F8D782;}
</style>
<path class="st0" d="M41.8,0h224v61h-266L41.8,0z"/>
<path class="st1" d="M129.6,38.2c-1,0-1.9-0.1-2.8-0.3c-0.8-0.2-1.6-0.5-2.2-0.9c-0.6-0.5-1.1-1.1-1.4-1.8c-0.3-0.8-0.5-1.7-0.5-2.9
	V19.6h2.5v12.6c0,1,0.2,1.7,0.5,2.2c0.3,0.5,0.8,0.9,1.5,1.1c0.7,0.2,1.5,0.3,2.4,0.3c0.9,0,1.7-0.1,2.4-0.3
	c0.7-0.2,1.2-0.6,1.5-1.1c0.4-0.5,0.5-1.3,0.5-2.2V19.6h2.5v12.6c0,1.2-0.2,2.1-0.5,2.9c-0.3,0.8-0.8,1.4-1.4,1.8
	c-0.6,0.4-1.3,0.7-2.2,0.9C131.6,38.1,130.6,38.2,129.6,38.2z M150.2,38l-11.6-18.4h2.8L153,38H150.2z M138.7,38l6.1-9.8l1.3,2.1
	l-4.6,7.6H138.7z M146.9,29.6l-1.2-2.2l4.6-7.8h2.8L146.9,29.6z M154.2,39.8l7-21h2.5l-7,21H154.2z M172.7,38.2c-1,0-2-0.1-2.8-0.3
	c-0.9-0.2-1.6-0.5-2.2-0.9c-0.6-0.5-1.1-1.1-1.4-1.8c-0.3-0.8-0.5-1.7-0.5-2.9V19.6h2.5v12.6c0,1,0.2,1.7,0.5,2.2
	c0.3,0.5,0.8,0.9,1.5,1.1c0.7,0.2,1.5,0.3,2.4,0.3c0.9,0,1.7-0.1,2.4-0.3c0.7-0.2,1.2-0.6,1.5-1.1c0.3-0.5,0.5-1.3,0.5-2.2V19.6h2.5
	v12.6c0,1.2-0.2,2.1-0.5,2.9c-0.3,0.8-0.8,1.4-1.4,1.8c-0.6,0.4-1.3,0.7-2.2,0.9C174.7,38.1,173.8,38.2,172.7,38.2z M183.1,38V19.6
	h2.5V38H183.1z"/>
</svg>
