<svg width="90" height="72" viewBox="0 0 90 72" fill="none" xmlns="http://www.w3.org/2000/svg">
<g clip-path="url(#clip0_54_79)">
<path d="M13.872 49.6328L9.16452 51.3528L8.914 65.3557L25.209 59.4031C19.6153 57.5298 15.5359 54.2282 13.872 49.6328Z" fill="#FDBD39"/>
<path d="M16.3361 34.8223L0 40.7899L9.16452 51.3565L13.872 49.6366C12.2119 45.0562 13.2364 39.885 16.3361 34.8223Z" fill="#F69833"/>
<path d="M43.8222 14.6123C23.0216 22.2102 9.60946 37.8919 13.872 49.6327L89.1961 22.1167C84.9335 10.3759 64.6227 7.01448 43.8222 14.6123Z" fill="#FECF33"/>
<path d="M59.2422 57.1407C80.0428 49.5429 93.4773 33.9322 89.1923 22.1204L13.8683 49.6326C18.1533 61.4482 38.4416 64.7386 59.2422 57.1407Z" fill="#EE6723"/>
<path d="M89.1924 22.1167L13.8721 49.6327C15.3453 53.7008 20.9726 55.705 28.8621 55.705C36.5572 55.705 46.4059 53.8018 56.6735 50.0515C77.4741 42.4536 92.1051 30.1483 89.1924 22.1167Z" fill="#F69833"/>
<path d="M74.2023 16.0481C66.511 16.0481 56.6585 17.9513 46.3909 21.7016C25.5904 29.2994 10.9593 41.6011 13.872 49.6326L89.1961 22.1166C87.7192 18.0485 82.0956 16.0481 74.2023 16.0481Z" fill="#FDBD39"/>
<path d="M70.0407 66.0997C67.8234 66.0997 64.5555 64.0993 60.3228 60.1508C55.3162 55.4807 49.5841 48.6381 44.1737 40.887C38.7669 33.1358 34.3249 25.3884 31.6627 19.0656C28.7649 12.1782 28.3498 7.94557 30.4325 6.47984C30.9148 6.1508 31.4869 5.98254 32.0702 5.9975C33.764 5.9975 37.0694 7.25757 43.1753 13.27L43.3099 13.4009L43.2913 13.5879C43.2501 14.0216 43.2127 14.4553 43.1791 14.8853L43.1118 15.7341L42.5135 15.1321C35.9327 8.50269 33.0387 7.78853 32.0964 7.78853C31.8272 7.78853 31.6141 7.84087 31.4608 7.94931C30.5559 8.58495 30.4961 11.6959 33.3079 18.3702C35.9215 24.5771 40.3 32.2085 45.6357 39.8587C50.9751 47.5127 56.6211 54.2505 61.5418 58.8384C66.8438 63.7852 69.2331 64.3199 70.0146 64.3199C70.2838 64.3199 70.5006 64.2638 70.6652 64.1479C71.6186 63.4786 71.6186 60.1471 68.4853 52.9605L68.3394 52.6315L68.6535 52.4595C68.9676 52.2875 69.2742 52.1192 69.5584 51.9547L69.936 51.7416L70.1118 52.1379C72.3328 57.2306 74.4117 63.7029 71.6859 65.6174C71.2036 65.9464 70.6278 66.1147 70.0407 66.0997ZM70.0407 65.3145V65.7071V65.3145Z" fill="#EE6723"/>
<path d="M59.747 56.924L59.7171 57.3129C59.1899 63.8189 57.8064 71.6411 54.1945 71.9589C54.1197 71.9664 54.0449 71.9664 53.9739 71.9664C51.521 71.9664 49.199 68.4516 47.079 61.5231C45.0673 54.9647 43.5081 46.1629 42.6893 36.7366C41.8667 27.3104 41.8779 18.3702 42.7229 11.5613C43.6427 4.14296 45.3926 0.269254 47.9278 0.0449087C48.0025 0.0374305 48.0811 0.0336914 48.1558 0.0336914C49.9356 0.0336914 52.6166 2.04906 55.3611 11.4342L53.57 11.7782C52.654 8.64483 51.6556 6.09476 50.6648 4.33739C49.7487 2.71836 48.855 1.82472 48.1558 1.82472C48.1334 1.82472 48.111 1.82472 48.0848 1.82846C46.9855 1.92567 45.3852 4.58791 44.4953 11.7819C43.6652 18.4674 43.654 27.2767 44.4653 36.5796C45.2767 45.8862 46.8098 54.5572 48.784 60.9959C49.6664 63.8787 50.6349 66.2568 51.5883 67.8683C52.4633 69.3565 53.312 70.1754 53.9739 70.1754C53.9963 70.1754 54.0187 70.1754 54.0412 70.1716C55.0919 70.0819 57.0736 67.3075 57.9074 57.5522L59.747 56.924Z" fill="#EE6723"/>
</g>
<defs>
<clipPath id="clip0_54_79">
<rect width="90" height="71.9776" fill="white"/>
</clipPath>
</defs>
</svg>
